<svg t="1619263926750" class="icon" viewBox="0 0 1024 1024" version="1.1" xmlns="http://www.w3.org/2000/svg" p-id="2150" width="200" height="200"><path d="M924.5 338.9c-22.5-53.2-54.7-101-95.7-142s-88.8-73.2-142-95.7c-55.1-23.3-113.6-35.1-173.9-35.1-60.3 0-118.8 11.8-173.9 35.1-53.2 22.5-101 54.7-142 95.7s-73.2 88.8-95.7 142C77.9 394 66.1 452.5 66.1 512.8c0 60.3 11.8 118.8 35.1 173.9 22.5 53.2 54.7 101 95.7 142s88.8 73.2 142 95.7c55.1 23.3 113.6 35.1 173.9 35.1 60.3 0 118.8-11.8 173.9-35.1 53.2-22.5 101-54.7 142-95.7s73.2-88.8 95.7-142c23.3-55.1 35.1-113.6 35.1-173.9 0.1-60.3-11.7-118.8-35-173.9zM130.1 512.8c0-102.2 39.8-198.3 112.1-270.6 72.3-72.3 168.4-112.1 270.6-112.1 89.8 0 174.9 30.7 243.3 87.3L217.4 756.2c-56.5-68.4-87.3-153.5-87.3-243.4z m653.4 270.7c-72.3 72.3-168.4 112.1-270.6 112.1-93.1 0-181.2-33-250.8-93.6L802 262.1c60.5 69.6 93.6 157.6 93.6 250.8 0 102.2-39.8 198.3-112.1 270.6z" p-id="2151" fill="#cdcdcd"></path></svg>